<svg xmlns="http://www.w3.org/2000/svg" viewBox="0 0 100 100" preserveAspectRatio="xMidYMid" width="200" height="200" style="shape-rendering: auto; display: block; background: transparent;" xmlns:xlink="http://www.w3.org/1999/xlink"><g><g transform="rotate(0 50 50)">
  <rect fill="#fe718d" height="12" width="1" ry="0" rx="0" y="22" x="49.5">
    <animate repeatCount="indefinite" begin="-0.9375s" dur="1s" keyTimes="0;1" values="1;0" attributeName="opacity"></animate>
  </rect>
</g><g transform="rotate(22.5 50 50)">
  <rect fill="#fe718d" height="12" width="1" ry="0" rx="0" y="22" x="49.5">
    <animate repeatCount="indefinite" begin="-0.875s" dur="1s" keyTimes="0;1" values="1;0" attributeName="opacity"></animate>
  </rect>
</g><g transform="rotate(45 50 50)">
  <rect fill="#fe718d" height="12" width="1" ry="0" rx="0" y="22" x="49.5">
    <animate repeatCount="indefinite" begin="-0.8125s" dur="1s" keyTimes="0;1" values="1;0" attributeName="opacity"></animate>
  </rect>
</g><g transform="rotate(67.5 50 50)">
  <rect fill="#fe718d" height="12" width="1" ry="0" rx="0" y="22" x="49.5">
    <animate repeatCount="indefinite" begin="-0.75s" dur="1s" keyTimes="0;1" values="1;0" attributeName="opacity"></animate>
  </rect>
</g><g transform="rotate(90 50 50)">
  <rect fill="#fe718d" height="12" width="1" ry="0" rx="0" y="22" x="49.5">
    <animate repeatCount="indefinite" begin="-0.6875s" dur="1s" keyTimes="0;1" values="1;0" attributeName="opacity"></animate>
  </rect>
</g><g transform="rotate(112.5 50 50)">
  <rect fill="#fe718d" height="12" width="1" ry="0" rx="0" y="22" x="49.5">
    <animate repeatCount="indefinite" begin="-0.625s" dur="1s" keyTimes="0;1" values="1;0" attributeName="opacity"></animate>
  </rect>
</g><g transform="rotate(135 50 50)">
  <rect fill="#fe718d" height="12" width="1" ry="0" rx="0" y="22" x="49.5">
    <animate repeatCount="indefinite" begin="-0.5625s" dur="1s" keyTimes="0;1" values="1;0" attributeName="opacity"></animate>
  </rect>
</g><g transform="rotate(157.5 50 50)">
  <rect fill="#fe718d" height="12" width="1" ry="0" rx="0" y="22" x="49.5">
    <animate repeatCount="indefinite" begin="-0.5s" dur="1s" keyTimes="0;1" values="1;0" attributeName="opacity"></animate>
  </rect>
</g><g transform="rotate(180 50 50)">
  <rect fill="#fe718d" height="12" width="1" ry="0" rx="0" y="22" x="49.5">
    <animate repeatCount="indefinite" begin="-0.4375s" dur="1s" keyTimes="0;1" values="1;0" attributeName="opacity"></animate>
  </rect>
</g><g transform="rotate(202.5 50 50)">
  <rect fill="#fe718d" height="12" width="1" ry="0" rx="0" y="22" x="49.5">
    <animate repeatCount="indefinite" begin="-0.375s" dur="1s" keyTimes="0;1" values="1;0" attributeName="opacity"></animate>
  </rect>
</g><g transform="rotate(225 50 50)">
  <rect fill="#fe718d" height="12" width="1" ry="0" rx="0" y="22" x="49.5">
    <animate repeatCount="indefinite" begin="-0.3125s" dur="1s" keyTimes="0;1" values="1;0" attributeName="opacity"></animate>
  </rect>
</g><g transform="rotate(247.5 50 50)">
  <rect fill="#fe718d" height="12" width="1" ry="0" rx="0" y="22" x="49.5">
    <animate repeatCount="indefinite" begin="-0.25s" dur="1s" keyTimes="0;1" values="1;0" attributeName="opacity"></animate>
  </rect>
</g><g transform="rotate(270 50 50)">
  <rect fill="#fe718d" height="12" width="1" ry="0" rx="0" y="22" x="49.5">
    <animate repeatCount="indefinite" begin="-0.1875s" dur="1s" keyTimes="0;1" values="1;0" attributeName="opacity"></animate>
  </rect>
</g><g transform="rotate(292.5 50 50)">
  <rect fill="#fe718d" height="12" width="1" ry="0" rx="0" y="22" x="49.5">
    <animate repeatCount="indefinite" begin="-0.125s" dur="1s" keyTimes="0;1" values="1;0" attributeName="opacity"></animate>
  </rect>
</g><g transform="rotate(315 50 50)">
  <rect fill="#fe718d" height="12" width="1" ry="0" rx="0" y="22" x="49.5">
    <animate repeatCount="indefinite" begin="-0.0625s" dur="1s" keyTimes="0;1" values="1;0" attributeName="opacity"></animate>
  </rect>
</g><g transform="rotate(337.5 50 50)">
  <rect fill="#fe718d" height="12" width="1" ry="0" rx="0" y="22" x="49.5">
    <animate repeatCount="indefinite" begin="0s" dur="1s" keyTimes="0;1" values="1;0" attributeName="opacity"></animate>
  </rect>
</g><g></g></g><!-- [ldio] generated by https://loading.io --></svg>